<?xml version="1.0" standalone="no"?>
<!DOCTYPE svg PUBLIC "-//W3C//DTD SVG 20010904//EN"
 "http://www.w3.org/TR/2001/REC-SVG-20010904/DTD/svg10.dtd">
<svg version="1.0" xmlns="http://www.w3.org/2000/svg"
 width="96.000000pt" height="96.000000pt" viewBox="0 0 96.000000 96.000000"
 preserveAspectRatio="xMidYMid meet">
<metadata>
Created by potrace 1.14, written by Peter Selinger 2001-2017
</metadata>
<g transform="translate(0.000000,96.000000) scale(0.100000,-0.100000)"
fill="#000000" stroke="none">
<path d="M222 927 c-37 -38 -41 -53 -11 -37 11 7 23 10 25 7 7 -6 -96 -97
-110 -97 -6 0 -5 -4 3 -9 11 -7 12 -13 3 -23 -15 -19 -29 -103 -15 -95 6 4 12
-14 16 -46 6 -62 60 -183 88 -197 17 -10 19 -7 19 26 l0 37 23 -21 c19 -18 35
-22 84 -22 72 0 97 16 117 75 8 21 18 41 23 42 6 2 18 -16 27 -40 25 -66 44
-79 116 -78 35 0 69 6 78 13 13 11 15 10 9 -5 -9 -23 6 -22 28 3 10 11 24 20
31 20 27 0 54 51 54 101 0 48 1 49 31 49 l32 0 -25 20 c-30 23 -66 92 -51 97
21 7 -14 123 -37 123 -5 0 -7 7 -4 15 4 10 0 15 -14 15 -10 0 -32 10 -46 21
-21 17 -25 24 -14 30 7 5 -79 9 -199 9 -131 0 -214 -4 -218 -10 -3 -5 -11 -10
-16 -10 -6 0 -7 5 -4 10 14 22 -13 8 -43 -23z m293 -77 c10 -11 16 -20 13 -20
-3 0 -13 9 -23 20 -10 11 -16 20 -13 20 3 0 13 -9 23 -20z m270 -8 c-3 -3 -11
0 -18 7 -9 10 -8 11 6 5 10 -3 15 -9 12 -12z m-585 -45 c0 -2 -13 -13 -30 -25
-35 -26 -40 -22 -8 8 19 18 38 26 38 17z m581 -24 c13 -16 12 -17 -3 -4 -10 7
-18 15 -18 17 0 8 8 3 21 -13z m-541 -2 c0 -6 -12 -23 -26 -38 l-25 -28 23 37
c24 40 28 44 28 29z m390 -89 c0 -18 0 -18 -30 33 l-23 40 27 -29 c14 -16 26
-36 26 -44z m-51 13 c12 -25 21 -49 21 -54 0 -11 -79 -41 -110 -41 -13 0 -45
7 -70 16 -25 9 -52 18 -60 21 -10 3 -6 10 15 28 34 27 45 31 45 13 0 -15 30
-48 45 -48 7 0 10 12 8 33 l-4 32 21 -27 c25 -32 46 -38 30 -9 -5 11 -10 30
-10 43 0 20 3 19 21 -12 26 -43 28 -45 34 -38 3 3 -1 24 -9 46 -20 56 -4 54
23 -3z m-282 8 c-8 -10 -19 -30 -22 -45 -4 -16 -11 -28 -16 -28 -5 0 -3 12 3
28 12 28 37 62 46 62 3 0 -2 -8 -11 -17z m32 -36 c-11 -24 -37 -43 -46 -33 -2
2 8 18 23 35 30 36 40 35 23 -2z m96 -71 c19 -8 35 -20 35 -25 0 -25 -34 -92
-51 -101 -26 -14 -115 -12 -127 3 -16 19 -25 64 -18 90 11 44 93 61 161 33z
m255 -1 c17 -9 30 -17 30 -18 11 -65 10 -77 -9 -96 -24 -24 -97 -29 -133 -10
-20 11 -48 65 -48 94 0 20 54 44 98 45 18 0 46 -7 62 -15z m-483 -37 c-3 -7
-5 -2 -5 12 0 14 2 19 5 13 2 -7 2 -19 0 -25z m540 -60 c-3 -8 -6 -5 -6 6 -1
11 2 17 5 13 3 -3 4 -12 1 -19z"/>
<path d="M290 563 c0 -6 8 -17 18 -24 16 -13 16 -13 2 6 -8 11 -16 22 -17 24
-2 2 -3 0 -3 -6z"/>
<path d="M347 550 c6 -22 30 -22 25 0 -2 9 5 10 25 6 21 -5 24 -4 13 4 -8 5
-27 10 -42 10 -21 0 -25 -4 -21 -20z"/>
<path d="M562 558 c-7 -7 -12 -16 -12 -22 0 -5 6 -1 14 9 14 19 15 19 34 2 13
-12 22 -15 27 -8 3 6 3 11 -2 11 -4 0 -1 5 7 10 11 7 6 10 -20 10 -20 0 -41
-5 -48 -12z"/>
<path d="M280 109 c-14 -6 -58 -17 -98 -25 -77 -15 -120 -33 -141 -58 -12 -15
30 -16 443 -16 270 0 456 4 456 9 0 18 -69 52 -127 63 -32 5 -77 17 -101 25
-41 14 -43 14 -73 -11 -40 -34 -68 -41 -159 -41 -61 0 -83 5 -117 24 -24 14
-43 28 -43 33 0 10 -8 9 -40 -3z"/>
</g>
</svg>
